<?xml version="1.0" encoding="UTF-8" standalone="no"?>
<!-- Created with Inkscape (http://www.inkscape.org/) -->

<svg
   xmlns:dc="http://purl.org/dc/elements/1.1/"
   xmlns:cc="http://creativecommons.org/ns#"
   xmlns:rdf="http://www.w3.org/1999/02/22-rdf-syntax-ns#"
   xmlns:svg="http://www.w3.org/2000/svg"
   xmlns="http://www.w3.org/2000/svg"
   xmlns:sodipodi="http://sodipodi.sourceforge.net/DTD/sodipodi-0.dtd"
   xmlns:inkscape="http://www.inkscape.org/namespaces/inkscape"
   width="256"
   height="256"
   viewBox="0 0 67.733332 67.733335"
   version="1.1"
   id="svg8"
   inkscape:version="0.92.4 (5da689c313, 2019-01-14)"
   sodipodi:docname="u-tokyo_logo.svg"
   inkscape:export-filename="/home/.persistent/yuka/projects/u-tokyo.gr.jp/firebase-dev/public/resources/u-tokyo_logo.384.png"
   inkscape:export-xdpi="144.00002"
   inkscape:export-ydpi="144.00002">
  <defs
     id="defs2" />
  <sodipodi:namedview
     id="base"
     pagecolor="#ffffff"
     bordercolor="#666666"
     borderopacity="1.0"
     inkscape:pageopacity="0.0"
     inkscape:pageshadow="2"
     inkscape:zoom="1.63"
     inkscape:cx="103.54839"
     inkscape:cy="113.20489"
     inkscape:document-units="mm"
     inkscape:current-layer="layer1"
     showgrid="false"
     units="px"
     inkscape:window-width="1536"
     inkscape:window-height="800"
     inkscape:window-x="0"
     inkscape:window-y="27"
     inkscape:window-maximized="1" />
  <metadata
     id="metadata5">
    <rdf:RDF>
      <cc:Work
         rdf:about="">
        <dc:format>image/svg+xml</dc:format>
        <dc:type
           rdf:resource="http://purl.org/dc/dcmitype/StillImage" />
        <dc:title></dc:title>
      </cc:Work>
    </rdf:RDF>
  </metadata>
  <g
     inkscape:label="Layer 1"
     inkscape:groupmode="layer"
     id="layer1"
     transform="translate(0,-229.26665)">
    <rect
       style="fill:#ffffff;fill-opacity:1;stroke:none;stroke-width:0.87364483;stroke-linecap:round;stroke-linejoin:round;stroke-miterlimit:4;stroke-dasharray:none;stroke-dashoffset:0;stroke-opacity:1;paint-order:normal"
       id="rect815"
       width="68.262497"
       height="68.262497"
       x="-0.26458332"
       y="229.00206"
       sodipodi:insensitive="true" />
    <g
       aria-label=".u-tokyo"
       style="font-style:normal;font-variant:normal;font-weight:normal;font-stretch:normal;font-size:2.82222223px;line-height:1.25;font-family:'Noto Sans CJK JP';-inkscape-font-specification:'Noto Sans CJK JP';text-align:end;letter-spacing:0px;word-spacing:0px;text-anchor:end;fill:#000000;fill-opacity:1;stroke:none;stroke-width:0.26458332"
       id="text4531">
      <path
         d="m 5.2074322,265.56537 c 0,0.635 0.4826,1.1176 1.1176,1.1176 0.6477,0 1.1176,-0.4826 1.1176,-1.1176 0,-0.6223 -0.4699,-1.1176 -1.1176,-1.1176 -0.635,0 -1.1176,0.4953 -1.1176,1.1176 z"
         style="fill:#fe005a;fill-opacity:1"
         id="path4586"
         inkscape:connector-curvature="0" />
      <path
         d="m 12.479571,259.85037 h -1.0668 v 4.8641 c 0,1.2446 0.635,1.9685 1.9304,1.9685 0.7874,0 1.6129,-0.3683 2.1463,-1.0414 l 0.0889,0.9017 h 0.9144 v -6.6929 h -1.0668 v 4.9276 c -0.3683,0.5715 -1.0795,1.0668 -1.8161,1.0668 -0.7747,0 -1.1303,-0.381 -1.1303,-1.2446 z"
         style="font-style:normal;font-variant:normal;font-weight:normal;font-stretch:normal;font-size:12.69999981px;font-family:'Fira Mono';-inkscape-font-specification:'Fira Mono';stroke-width:0.26458332"
         id="path4588"
         inkscape:connector-curvature="0" />
      <path
         d="m 19.34531,263.02537 h 4.445 v -0.9144 h -4.445 z"
         style="font-style:normal;font-variant:normal;font-weight:normal;font-stretch:normal;font-size:12.69999981px;font-family:'Fira Mono';-inkscape-font-specification:'Fira Mono';stroke-width:0.26458332"
         id="path4590"
         inkscape:connector-curvature="0" />
      <path
         d="m 31.964148,266.20037 -0.4191,-0.7239 c -0.3556,0.1905 -0.7874,0.3175 -1.2827,0.3175 -0.9144,0 -1.2827,-0.3937 -1.2827,-1.1303 v -3.9751 h 2.1844 l 0.1397,-0.8382 h -2.3241 v -1.6383 l -1.0668,0.127 v 1.5113 h -1.5367 v 0.8382 h 1.5367 v 3.9878 c 0,1.1684 0.8128,2.0066 2.2479,2.0066 0.635,0 1.3335,-0.1778 1.8034,-0.4826 z"
         style="font-style:normal;font-variant:normal;font-weight:normal;font-stretch:normal;font-size:12.69999981px;font-family:'Fira Mono';-inkscape-font-specification:'Fira Mono';stroke-width:0.26458332"
         id="path4592"
         inkscape:connector-curvature="0" />
      <path
         d="m 36.810588,259.71067 c -1.8796,0 -2.8956,1.4351 -2.8956,3.4925 0,2.1082 1.0033,3.4798 2.8829,3.4798 1.8669,0 2.8829,-1.4351 2.8829,-3.4925 0,-2.1082 -0.9906,-3.4798 -2.8702,-3.4798 z m 0,0.8763 c 1.143,0 1.7145,0.8382 1.7145,2.6035 0,1.7907 -0.5715,2.6162 -1.7272,2.6162 -1.1557,0 -1.7272,-0.8255 -1.7272,-2.6035 0,-1.778 0.5842,-2.6162 1.7399,-2.6162 z"
         style="font-style:normal;font-variant:normal;font-weight:normal;font-stretch:normal;font-size:12.69999981px;font-family:'Fira Mono';-inkscape-font-specification:'Fira Mono';stroke-width:0.26458332"
         id="path4594"
         inkscape:connector-curvature="0" />
      <path
         d="m 43.015928,257.03097 -1.0668,0.127 v 9.3853 h 1.0668 z m 4.457699,2.8194 h -1.3716 l -2.971799,3.0353 3.289299,3.6576 h 1.4097 l -3.3528,-3.6703 z"
         style="font-style:normal;font-variant:normal;font-weight:normal;font-stretch:normal;font-size:12.69999981px;font-family:'Fira Mono';-inkscape-font-specification:'Fira Mono';stroke-width:0.26458332"
         id="path4596"
         inkscape:connector-curvature="0" />
      <path
         d="m 55.050563,259.85037 h -1.1049 l -1.892299,5.8801 -1.9177,-5.8801 h -1.1303 l 2.3241,6.6929 h 0.3556 c -0.3429,1.0287 -0.7493,1.6002 -2.1209,1.8415 l 0.1524,0.8509 c 1.778,-0.1905 2.5273,-1.2827 2.997199,-2.6543 z"
         style="font-style:normal;font-variant:normal;font-weight:normal;font-stretch:normal;font-size:12.69999981px;font-family:'Fira Mono';-inkscape-font-specification:'Fira Mono';stroke-width:0.26458332"
         id="path4598"
         inkscape:connector-curvature="0" />
      <path
         d="m 59.655703,259.71067 c -1.8796,0 -2.8956,1.4351 -2.8956,3.4925 0,2.1082 1.0033,3.4798 2.8829,3.4798 1.8669,0 2.8829,-1.4351 2.8829,-3.4925 0,-2.1082 -0.9906,-3.4798 -2.8702,-3.4798 z m 0,0.8763 c 1.143,0 1.7145,0.8382 1.7145,2.6035 0,1.7907 -0.5715,2.6162 -1.7272,2.6162 -1.1557,0 -1.7272,-0.8255 -1.7272,-2.6035 0,-1.778 0.5842,-2.6162 1.7399,-2.6162 z"
         style="font-style:normal;font-variant:normal;font-weight:normal;font-stretch:normal;font-size:12.69999981px;font-family:'Fira Mono';-inkscape-font-specification:'Fira Mono';stroke-width:0.26458332"
         id="path4600"
         inkscape:connector-curvature="0" />
    </g>
  </g>
</svg>
